<svg viewBox="0 0 760 240" xmlns="http://www.w3.org/2000/svg" role="img" aria-label="skills-hive — portable agent skills">
  <title>skills-hive — portable agent skills, one hive, every harness</title>

  <!-- Warm panel so the lockup reads on any theme -->
  <rect x="1.5" y="1.5" width="757" height="237" rx="30" fill="#FBF6EA" stroke="#EADFC6" stroke-width="2.5"/>

  <!-- Hive mark -->
  <g transform="translate(30,20.5) scale(0.83)">
    <g fill="#F7EFDD" stroke="#17140F" stroke-width="4.5" stroke-linejoin="round">
      <polygon transform="translate(82.75,55.5)"  points="34.64,20 0,40 -34.64,20 -34.64,-20 0,-40 34.64,-20"/>
      <polygon transform="translate(157.25,55.5)" points="34.64,20 0,40 -34.64,20 -34.64,-20 0,-40 34.64,-20"/>
      <polygon transform="translate(194.5,120)"   points="34.64,20 0,40 -34.64,20 -34.64,-20 0,-40 34.64,-20"/>
      <polygon transform="translate(157.25,184.5)" points="34.64,20 0,40 -34.64,20 -34.64,-20 0,-40 34.64,-20"/>
      <polygon transform="translate(82.75,184.5)"  points="34.64,20 0,40 -34.64,20 -34.64,-20 0,-40 34.64,-20"/>
      <polygon transform="translate(45.5,120)"     points="34.64,20 0,40 -34.64,20 -34.64,-20 0,-40 34.64,-20"/>
    </g>
    <polygon transform="translate(120,120)" points="34.64,20 0,40 -34.64,20 -34.64,-20 0,-40 34.64,-20"
             fill="#17140F" stroke="#17140F" stroke-width="4.5" stroke-linejoin="round"/>
    <g fill="#E1901A">
      <circle cx="82.75" cy="47.5" r="3.8"/><circle cx="74.75" cy="61.5" r="3.8"/><circle cx="90.75" cy="61.5" r="3.8"/>
      <circle cx="149.25" cy="55.5" r="3.8"/><circle cx="165.25" cy="55.5" r="3.8"/>
      <circle cx="187.5" cy="113" r="3.8"/><circle cx="201.5" cy="113" r="3.8"/><circle cx="187.5" cy="127" r="3.8"/><circle cx="201.5" cy="127" r="3.8"/>
      <circle cx="157.25" cy="176.5" r="3.8"/><circle cx="149.25" cy="190.5" r="3.8"/><circle cx="165.25" cy="190.5" r="3.8"/>
      <circle cx="74.75" cy="184.5" r="3.8"/><circle cx="90.75" cy="184.5" r="3.8"/>
      <circle cx="45.5" cy="112" r="3.8"/><circle cx="37.5" cy="126" r="3.8"/><circle cx="53.5" cy="126" r="3.8"/>
    </g>
    <g>
      <ellipse cx="111" cy="115" rx="9" ry="5.4" fill="#F7EFDD" opacity="0.92" transform="rotate(-28 111 115)"/>
      <ellipse cx="129" cy="115" rx="9" ry="5.4" fill="#F7EFDD" opacity="0.92" transform="rotate(28 129 115)"/>
      <rect x="113.5" y="112" width="13" height="27" rx="6.5" fill="#F2A81D"/>
      <rect x="113.5" y="119.5" width="13" height="3" rx="1" fill="#17140F"/>
      <rect x="113.5" y="127.5" width="13" height="3" rx="1" fill="#17140F"/>
      <circle cx="120" cy="110" r="5.2" fill="#17140F"/>
      <path d="M117.5,106 Q114.5,101 113,98.5" stroke="#17140F" stroke-width="1.6" fill="none" stroke-linecap="round"/>
      <path d="M122.5,106 Q125.5,101 127,98.5" stroke="#17140F" stroke-width="1.6" fill="none" stroke-linecap="round"/>
      <circle cx="113" cy="98.5" r="1.7" fill="#F2A81D"/>
      <circle cx="127" cy="98.5" r="1.7" fill="#F2A81D"/>
    </g>
  </g>

  <!-- Wordmark + tagline -->
  <g font-family="'Poppins','Futura','Century Gothic','Trebuchet MS','Helvetica Neue',Arial,sans-serif">
    <text x="272" y="128" font-size="72" font-weight="800" letter-spacing="-2" fill="#17140F">skills<tspan fill="#F2A81D">·hive</tspan></text>
    <rect x="274" y="146" width="52" height="4" rx="2" fill="#F2A81D"/>
    <text x="274" y="176" font-size="17" font-weight="700" letter-spacing="3.5" fill="#17140F">ONE HIVE · EVERY HARNESS</text>
    <text x="274" y="201" font-size="14.5" font-weight="500" letter-spacing="0.6" fill="#7A6B4F">Portable agent skills in the SKILL.md standard</text>
  </g>
</svg>
