<svg viewBox="118 24 300 398" xmlns="http://www.w3.org/2000/svg" role="img" aria-label="skills-hive fleet map">
  <title>skills-hive — the fleet</title>
  <desc>Barry the king bee at the center of a honeycomb, surrounded by named harness cells: Claude Code, Codex, Gemini CLI, GitHub Copilot (with Scout child), Kiro, Cursor, Goose, OpenCode (open source), Databricks Genie Code, and Snowflake Cortex Code.</desc>

  <rect x="121" y="27" width="294" height="392" rx="24" fill="#FBF6EA" stroke="#EADFC6" stroke-width="2.5"/>

  <rect x="347.5" y="206.5" width="9" height="7" rx="3" fill="#E1901A"/>

  <g fill="#F7EFDD" stroke="#17140F" stroke-width="4.5" stroke-linejoin="round">
    <polygon transform="translate(202.75,145.5)" points="34.64,20 0,40 -34.64,20 -34.64,-20 0,-40 34.64,-20"/>
    <polygon transform="translate(277.25,145.5)" points="34.64,20 0,40 -34.64,20 -34.64,-20 0,-40 34.64,-20"/>
    <polygon transform="translate(314.5,210)"    points="34.64,20 0,40 -34.64,20 -34.64,-20 0,-40 34.64,-20"/>
    <polygon transform="translate(277.25,274.5)" points="34.64,20 0,40 -34.64,20 -34.64,-20 0,-40 34.64,-20"/>
    <polygon transform="translate(202.75,274.5)" points="34.64,20 0,40 -34.64,20 -34.64,-20 0,-40 34.64,-20"/>
    <polygon transform="translate(165.5,210)"    points="34.64,20 0,40 -34.64,20 -34.64,-20 0,-40 34.64,-20"/>
    <polygon transform="translate(165.5,81)"     points="34.64,20 0,40 -34.64,20 -34.64,-20 0,-40 34.64,-20"/>
    <polygon transform="translate(165.5,339)"    points="34.64,20 0,40 -34.64,20 -34.64,-20 0,-40 34.64,-20"/>
    <polygon transform="translate(314.5,339)"    points="34.64,20 0,40 -34.64,20 -34.64,-20 0,-40 34.64,-20"/>
  </g>

  <polygon transform="translate(372,210)" points="19.05,11 0,22 -19.05,11 -19.05,-11 0,-22 19.05,-11"
           fill="#F7EFDD" stroke="#17140F" stroke-width="3.5" stroke-linejoin="round"/>

  <polygon transform="translate(314.5,81)" points="34.64,20 0,40 -34.64,20 -34.64,-20 0,-40 34.64,-20"
           fill="none" stroke="#17140F" stroke-width="3" stroke-linejoin="round" stroke-dasharray="7 5"/>

  <polygon transform="translate(240,210)" points="34.64,20 0,40 -34.64,20 -34.64,-20 0,-40 34.64,-20"
           fill="#17140F" stroke="#17140F" stroke-width="4.5" stroke-linejoin="round"/>

  <g font-family="'Poppins','Helvetica Neue',Arial,sans-serif" font-weight="700" fill="#17140F" text-anchor="middle">
    <text x="202.75" y="143" font-size="11">Claude</text><text x="202.75" y="155" font-size="11">Code</text>
    <text x="277.25" y="149.5" font-size="12.5">Codex</text>
    <text x="314.5" y="207" font-size="11">GitHub</text><text x="314.5" y="219" font-size="11">Copilot</text>
    <text x="277.25" y="278.5" font-size="12.5">Kiro</text>
    <text x="202.75" y="272" font-size="11">Gemini</text><text x="202.75" y="284" font-size="11">CLI</text>
    <text x="165.5" y="214" font-size="12.5">Cursor</text>
    <text x="165.5" y="85" font-size="12.5">Goose</text>
    <text x="314.5" y="85" font-size="11">OpenCode</text>
    <text x="165.5" y="336" font-size="10">Databricks</text><text x="165.5" y="348" font-size="10">Genie Code</text>
    <text x="314.5" y="336" font-size="10">Snowflake</text><text x="314.5" y="348" font-size="10">Cortex Code</text>
    <text x="372" y="213" font-size="8.5">Scout</text>
  </g>

  <g transform="translate(115,80)">
    <ellipse cx="116" cy="120" rx="9" ry="5.4" fill="#F7EFDD" opacity="0.92" transform="rotate(-28 116 120)"/>
    <ellipse cx="134" cy="120" rx="9" ry="5.4" fill="#F7EFDD" opacity="0.92" transform="rotate(28 134 120)"/>
    <rect x="118.5" y="117" width="13" height="27" rx="6.5" fill="#F2A81D"/>
    <rect x="118.5" y="124.5" width="13" height="3" rx="1" fill="#17140F"/>
    <rect x="118.5" y="132.5" width="13" height="3" rx="1" fill="#17140F"/>
    <circle cx="125" cy="115" r="5.2" fill="#17140F"/>
    <path d="M118,109 L120.5,104 L123,108.5 L125,103 L127,108.5 L129.5,104 L132,109 Z" fill="#F2A81D"/>
    <circle cx="120.5" cy="104" r="1.2" fill="#F2A81D"/><circle cx="125" cy="103" r="1.3" fill="#F2A81D"/><circle cx="129.5" cy="104" r="1.2" fill="#F2A81D"/>
  </g>
  <text x="240" y="243" font-family="'Poppins','Helvetica Neue',Arial,sans-serif" font-size="10" font-weight="700" letter-spacing="1.5" fill="#F7EFDD" text-anchor="middle">BARRY</text>

  <text x="266" y="392" font-family="'Poppins','Helvetica Neue',Arial,sans-serif" font-size="13" font-weight="800" letter-spacing="1" fill="#17140F" text-anchor="middle">skills·hive — the fleet</text>
  <text x="266" y="408" font-family="'Poppins','Helvetica Neue',Arial,sans-serif" font-size="9.5" font-weight="500" fill="#7A6B4F" text-anchor="middle">Barry (king) orchestrates every harness · dashed cell = open source</text>
</svg>
